<?xml version="1.0" encoding="UTF-8"?>
<!DOCTYPE svg PUBLIC "-//W3C//DTD SVG 1.1//EN" "http://www.w3.org/Graphics/SVG/1.1/DTD/svg11.dtd">
<!-- Creator: CorelDRAW 2018 (64 Bit Versión de evaluación) -->
<svg xmlns="http://www.w3.org/2000/svg" xml:space="preserve" width="104.422mm" height="104.422mm" version="1.1" style="shape-rendering:geometricPrecision; text-rendering:geometricPrecision; image-rendering:optimizeQuality; fill-rule:evenodd; clip-rule:evenodd"
viewBox="0 0 10442.24 10442.24"
 xmlns:xlink="http://www.w3.org/1999/xlink">
 <defs>
  <style type="text/css">
   <![CDATA[
    .fil0 {fill:#282829}
   ]]>
  </style>
 </defs>
 <g id="Capa_x0020_1">
  <metadata id="CorelCorpID_0Corel-Layer"/>
  <path class="fil0" d="M1935.04 0l6572.16 0c1064.28,0 1935.04,870.76 1935.04,1935.04l0 6572.16c0,1064.28 -870.76,1935.04 -1935.04,1935.04l-6572.16 0c-1064.28,0 -1935.04,-870.76 -1935.04,-1935.04l0 -6572.16c0,-1064.28 870.76,-1935.04 1935.04,-1935.04zm6736.84 7017.71l0 -1199.71c0,-52.3 42.78,-95.09 95.08,-95.09l210.54 0c52.3,0 95.09,42.79 95.09,95.09l0 1460.2 0 210.54c0,52.3 -42.79,95.09 -95.09,95.09l-210.54 0 -1460.2 0c-52.3,0 -95.09,-42.79 -95.09,-95.09l0 -210.54c0,-52.3 42.79,-95.07 95.09,-95.08l1230.42 -0.17c84.39,-0.48 134.7,-88.94 134.7,-165.24zm-192.08 -1904.99l6.63 1791.93c0,30.98 -7.74,59.74 -23.23,86.28 -15.48,26.55 -35.39,46.46 -59.73,59.73 -24.33,13.28 -51.98,19.91 -82.96,19.91l-1234.44 0c-44.25,0 -82.96,-15.48 -116.15,-46.45 -33.18,-30.97 -49.77,-68.58 -49.77,-112.83l0 -1745.48c-101.77,-190.25 -265.47,-285.38 -491.12,-285.38 -176.99,0 -320.78,84.07 -431.4,252.2l6.64 1772.02c0,48.67 -16.59,88.5 -49.78,119.47 -33.18,30.97 -71.89,46.45 -116.14,46.45l-1234.44 0c-44.25,0 -82.96,-15.48 -116.15,-46.45 -33.18,-30.97 -49.77,-68.58 -49.77,-112.83l-6.64 -1745.48c-97.34,-190.25 -258.84,-285.38 -484.49,-285.38 -57.52,0 -109.5,6.64 -155.96,19.91 -46.46,13.27 -87.39,34.29 -122.78,63.05 -35.4,28.76 -64.16,56.41 -86.28,82.96 -22.12,26.55 -46.46,59.73 -73.01,99.55l0 1791.94c0,44.24 -16.59,82.96 -49.77,116.14 -33.19,33.19 -71.9,49.78 -116.15,49.78l-1221.17 0c-44.24,0 -82.96,-16.59 -116.14,-49.78 -33.19,-33.18 -49.78,-71.9 -49.78,-116.14l0 -3391.41c0,-44.24 16.59,-82.96 49.78,-116.14 33.18,-33.18 71.9,-49.78 116.14,-49.78l1241.08 0c35.4,0 67.48,14.38 96.24,43.14 28.76,28.76 40.92,60.84 36.5,96.24 26.55,-13.28 64.16,-30.97 112.83,-53.1 48.67,-22.12 158.17,-49.77 328.52,-82.96 170.34,-33.18 350.64,-45.35 540.9,-36.5 252.2,8.85 462.36,35.4 630.49,79.64 168.13,44.25 277.64,82.96 328.52,116.15 50.89,33.18 85.18,67.47 102.87,102.87 8.85,-8.85 22.13,-19.91 39.83,-33.19 17.69,-13.27 59.73,-38.71 126.09,-76.32 66.37,-37.61 141.59,-70.79 225.66,-99.55 84.06,-28.76 200.21,-53.1 348.43,-73.01 148.22,-19.91 310.82,-25.44 487.8,-16.59 522.1,17.7 924.73,184.72 1207.9,501.08 283.17,316.35 451.3,737.79 504.4,1264.31zm-5753.3 -3284.22c343.31,0 621.62,278.31 621.62,621.63 0,343.31 -278.31,621.62 -621.62,621.62 -343.32,0 -621.63,-278.31 -621.63,-621.62 0,-343.32 278.31,-621.63 621.63,-621.63zm-699.3 -1380.23l6387.84 0c868.42,0 1578.94,710.52 1578.94,1578.94l0 6387.84c0,868.42 -710.52,1578.94 -1578.94,1578.94l-6387.84 0c-868.42,0 -1578.94,-710.52 -1578.94,-1578.94l0 -6387.84c0,-868.42 710.52,-1578.94 1578.94,-1578.94z"/>
 </g>
</svg>
